{"title":"Ash vs Evil Dead S01 1080p BluRay HEVC DD5.1 x265","uid":15559900,"size":5036890643,"categoryP":"video","categoryS":"hd___tv_shows","magnet":"?xt=urn:btih:c894826ff078f58786dc2f2f536c7621b7c2f518&amp;dn=Ash+vs+Evil+Dead+S01+1080p+BluRay+HEVC+DD5.1+x265&amp;tr=udp%3A%2F%2Ftracker.leechers-paradise.org%3A6969&amp;tr=udp%3A%2F%2Fzer0day.ch%3A1337&amp;tr=udp%3A%2F%2Fopen.demonii.com%3A1337&amp;tr=udp%3A%2F%2Ftracker.coppersurfer.tk%3A6969&amp;tr=udp%3A%2F%2Fexodus.desync.com%3A6969","seeders":7,"leechers":3,"uploader":"nayhtut","files":20,"time":1471117604,"description":"[Screenshots]\r\n \nhttps://s9.postimg.org/4oob84iu7/Ash_vs_Evil_Dead_S01_E04_1080p_Blu_Ray_HEVC_DD5_1.jpg \nhttps://s9.postimg.org/ulhzkqmhr/Ash_vs_Evil_Dead_S01_E09_1080p_Blu_Ray_HEVC_DD5_1.jpg \nhttps://s9.postimg.org/s5g66w4f3/Ash_vs_Evil_Dead_S01_E08_1080p_Blu_Ray_HEVC_DD5_1.jpg \nhttps://s9.postimg.org/5i0x0qov3/Ash_vs_Evil_Dead_S01_E06_1080p_Blu_Ray_HEVC_DD5_1.jpg \nhttps://s9.postimg.org/7b3tp2a1r/Ash_vs_Evil_Dead_S01_E05_1080p_Blu_Ray_HEVC_DD5_1.jpg \nhttps://s9.postimg.org/qhh0s8qjj/Ash_vs_Evil_Dead_S01_E04_1080p_Blu_Ray_HEVC_DD5_1.jpg \nhttps://s9.postimg.org/5ym4n6cm7/Ash_vs_Evil_Dead_S01_E03_1080p_Blu_Ray_HEVC_DD5_1.jpg \nhttps://s9.postimg.org/xn8ruozmn/Ash_vs_Evil_Dead_S01_E01_1080p_Blu_Ray_HEVC_DD5_1.jpg\r\n\r\n\r\nSource: Ash vs Evil Dead Season 1 1080p BluRay x264-ROVERS (Size: 22.80 GB)\r\n\r\n__--__--__--__--__--__--__--__--__--__--__--__--__--\r\n\r\nContains:  Ash vs Evil Dead Season One Episode 01 to 10\r\n\r\n__--__--__--__--__--__--__--__--__--__--__--__--__--\r\n\r\nFormat                                   : Matroska\r\nFormat version                           : Version 4 / Version 2\r\nFile size                                : 4.69 GiB\r\nDuration                                 : Various\r\nOverall bit rate                         : 2 314 Kbps\r\nWriting application                      : Lavf57.25.100\r\nWriting library                          : Lavf57.25.100\r\n\r\nVideo\r\n\r\nID                                       : 1\r\nFormat                                   : V_MPEGH/ISO/HEVC\r\nCodec ID                                 : V_MPEGH/ISO/HEVC\r\nDuration                                 : 40mn 46s\r\nBit rate                                 : 1 883 Kbps\r\nWidth                                    : 1 920 pixels\r\nHeight                                   : 1 080 pixels\r\nDisplay aspect ratio                     : 16:9\r\nFrame rate                               : 25.000 fps\r\nBits/(Pixel*Frame)                       : 0.036\r\nStream size                              : 549 MiB (81%)\r\nWriting library                          : Lavc57.48.101 libx265\r\nLanguage                                 : English\r\nDefault                                  : Yes\r\nForced                                   : No\r\nDURATION                                 : 00:40:46.531000000\r\nNUMBER_OF_FRAMES                         : 58657\r\nNUMBER_OF_BYTES                          : 2644069586\r\n_STATISTICS_WRITING_APP                  : mkvmerge v8.3.0 ('Over the Horizon') 64bit\r\n_STATISTICS_WRITING_DATE_UTC             : 2016-08-05 23:07:50\r\n_STATISTICS_TAGS                         : BPS DURATION NUMBER_OF_FRAMES NUMBER_OF_BYTES\r\n\r\nAudio\r\n\r\nID                                       : 2\r\nFormat                                   : AC-3\r\nFormat/Info                              : Audio Coding 3\r\nMode extension                           : CM (complete main)\r\nFormat settings, Endianness              : Big\r\nCodec ID                                 : A_AC3\r\nDuration                                 : 40mn 46s\r\nBit rate mode                            : Constant\r\nBit rate                                 : 384 Kbps\r\nChannel(s)                               : 6 channels\r\nChannel positions                        : Front: L C R, Side: L R, LFE\r\nSampling rate                            : 48.0 KHz\r\nBit depth                                : 16 bits\r\nCompression mode                         : Lossy\r\nStream size                              : 112 MiB (17%)\r\nWriting library                          : Lavc57.24.102 ac3\r\nLanguage                                 : English\r\nDefault                                  : Yes\r\nForced                                   : No\r\nDURATION                                 : 00:40:46.111000000\r\nNUMBER_OF_FRAMES                         : 76438\r\nNUMBER_OF_BYTES                          : 195681280\r\n_STATISTICS_WRITING_APP                  : mkvmerge v8.3.0 ('Over the Horizon') 64bit\r\n_STATISTICS_WRITING_DATE_UTC             : 2016-08-05 23:07:50\r\n_STATISTICS_TAGS                         : BPS DURATION NUMBER_OF_FRAMES NUMBER_OF_BYTES\r\n\r\n__--__--__--__--__--__--__--__--__--__--__--__--__--\r\n\r\n\r\nIMDb: http://www.imdb.com/title/tt4189022\r\n\r\n\r\n__--__--__--__--__--__--__--__--__--__--__--__--__--\r\n\r\n\r\nAfter adding torrent with magnet link,\r\n\r\nplease add this  following trackers list to the torrent for better seeds.\r\n\r\n\r\nudp://tracker.coppersurfer.tk:6969/announce\r\n\r\nudp://tracker.opentrackr.org:1337/announce\r\n \nhttp://tracker.baravik.org:6970/announce\r\n \nhttp://tracker2.wasabii.com.tw:6969/announce\r\n\r\nudp://9.rarbg.me:2710/announce\r\n\r\n\r\n__--__--__--__--__--__--__--__--__--__--__--__--__--\r\n\r\n\r\nEnjoy!","torrent":{"xt":"urn:btih:c894826ff078f58786dc2f2f536c7621b7c2f518","amp;dn":"Ash+vs+Evil+Dead+S01+1080p+BluRay+HEVC+DD5.1+x265","amp;tr":["udp%3A%2F%2Ftracker.leechers-paradise.org%3A6969","udp%3A%2F%2Fzer0day.ch%3A1337","udp%3A%2F%2Fopen.demonii.com%3A1337","udp%3A%2F%2Ftracker.coppersurfer.tk%3A6969","udp%3A%2F%2Fexodus.desync.com%3A6969"],"infoHash":"c894826ff078f58786dc2f2f536c7621b7c2f518","infoHashBuffer":{"type":"Buffer","data":[200,148,130,111,240,120,245,135,134,220,47,47,83,108,118,33,183,194,245,24]},"announce":[],"urlList":[]}}